<?xml version="1.0" standalone="no"?>
<!DOCTYPE svg PUBLIC "-//W3C//DTD SVG 20010904//EN"
 "http://www.w3.org/TR/2001/REC-SVG-20010904/DTD/svg10.dtd">
<svg version="1.0" xmlns="http://www.w3.org/2000/svg"
 width="500.000000pt" height="500.000000pt" viewBox="0 0 500.000000 500.000000"
 preserveAspectRatio="xMidYMid meet">

<g transform="translate(0.000000,500.000000) scale(0.100000,-0.100000)"
fill="#000000" stroke="none">
<path d="M350 2500 l0 -810 373 2 372 3 3 808 2 807 -375 0 -375 0 0 -810z
m332 653 c23 -21 23 -21 47 -2 20 17 40 19 162 19 l139 0 0 -60 0 -59 -137 -3
c-135 -3 -138 -4 -141 -25 -3 -23 -3 -23 137 -23 l141 0 0 -60 0 -60 -310 0
-310 0 0 108 c0 165 27 194 177 189 58 -2 76 -7 95 -24z m-152 -578 l5 -60 58
-3 57 -3 0 61 0 60 60 0 60 0 0 -60 0 -60 70 0 70 0 0 65 0 65 60 0 60 0 0
-125 0 -125 -310 0 -310 0 0 118 c0 65 3 121 6 125 3 3 29 5 58 4 l51 -1 5
-61z m423 -449 c63 -26 72 -46 76 -172 l3 -114 -312 0 -312 0 3 114 c4 125 13
145 74 172 43 19 423 19 468 0z"/>
<path d="M543 3053 c-7 -2 -13 -16 -13 -29 0 -22 4 -24 55 -24 51 0 55 2 55
24 0 13 -7 27 -16 30 -18 7 -63 7 -81 -1z"/>
<path d="M538 2009 c-10 -5 -18 -19 -18 -29 0 -19 8 -20 200 -20 l200 0 0 24
c0 13 -7 27 -16 30 -27 10 -348 6 -366 -5z"/>
<path d="M3387 3304 c-3 -3 -64 -5 -135 -5 -99 2 -130 -1 -133 -11 -2 -7 -4
-184 -4 -393 l0 -380 80 -3 80 -3 -3 172 c-2 99 1 176 7 182 5 5 18 6 30 2 20
-6 21 -12 21 -181 l0 -174 80 0 80 0 0 168 c0 172 -8 214 -46 235 -12 7 -10
12 10 28 36 29 49 88 42 192 l-6 87 180 0 180 0 0 -440 0 -440 -195 0 -195 0
6 28 c3 15 10 40 15 56 17 54 15 56 -69 56 l-78 0 -28 -122 c-44 -196 -44
-196 -45 -30 l-1 152 -74 0 -74 0 -6 -37 c-3 -21 -4 -198 -2 -393 l4 -355 76
-3 76 -3 1 183 1 183 20 -80 c11 -44 30 -125 43 -180 l22 -100 82 -3 c44 -2
81 1 81 5 0 4 -12 51 -25 102 -14 52 -25 99 -25 103 0 4 134 8 299 8 l299 0 6
-32 c17 -84 124 -173 225 -185 111 -13 239 65 273 168 l15 44 104 3 c83 2 106
6 117 19 18 25 16 378 -3 482 -18 91 -57 195 -107 279 -47 81 -189 221 -274
270 -128 76 -291 122 -430 122 l-44 0 0 103 c0 67 -4 107 -12 115 -9 9 -83 12
-273 12 -144 0 -264 -3 -268 -6z m-46 -180 c6 -16 6 -44 2 -68 -7 -35 -13 -41
-36 -44 l-27 -3 0 70 c0 69 1 71 25 71 18 0 28 -7 36 -26z m769 -428 c0 -245
2 -287 16 -300 13 -14 55 -16 300 -16 l284 0 2 -175 c0 -96 1 -181 2 -187 1
-9 -19 -13 -68 -13 l-69 0 -15 44 c-22 65 -96 135 -163 155 -66 20 -102 20
-168 0 -67 -20 -141 -90 -163 -155 l-15 -44 -310 -3 -310 -2 -13 60 c-10 49
-10 71 0 120 l13 60 242 0 c189 0 245 3 254 13 7 9 11 126 11 370 l1 357 84 0
85 0 0 -284z m188 219 c149 -71 265 -185 338 -329 24 -48 44 -94 44 -102 0
-12 -38 -14 -237 -12 l-238 3 -3 238 c-2 189 0 237 11 237 7 0 45 -16 85 -35z
m109 -816 c71 -44 97 -142 59 -222 -47 -97 -190 -119 -268 -41 -143 142 37
369 209 263z"/>
<path d="M1157 3293 c-2 -5 -2 -14 -1 -20 1 -7 2 -182 3 -388 l1 -375 158 0
157 0 -2 52 c-1 29 -2 58 -2 65 -1 8 -27 13 -78 15 l-78 3 -3 328 -2 327 -75
0 c-40 0 -76 -3 -78 -7z"/>
<path d="M1570 2905 l0 -395 75 0 75 0 0 395 0 395 -75 0 -75 0 0 -395z"/>
<path d="M1838 3288 c-2 -7 -3 -184 -3 -393 l0 -380 163 -3 162 -2 0 75 0 75
-80 0 -80 0 0 90 0 90 70 0 70 0 0 75 0 75 -70 0 -70 0 0 80 0 80 75 0 75 0 0
75 0 75 -154 0 c-114 0 -155 -3 -158 -12z"/>
<path d="M2267 3287 c-3 -8 -6 -186 -7 -395 l-1 -382 80 0 81 0 2 178 3 177
73 3 72 3 0 74 0 75 -75 0 -76 0 3 63 c2 40 7 62 16 63 6 1 41 2 77 3 l65 1 0
75 0 75 -154 0 c-120 0 -155 -3 -159 -13z"/>
<path d="M2690 3298 c-1 -31 -2 -569 -1 -660 l1 -128 160 0 160 0 0 75 0 75
-80 0 -80 0 0 90 0 90 70 0 70 0 0 75 0 75 -69 0 -69 0 -4 53 c-2 28 -2 64 0
80 4 27 5 27 78 27 l74 0 0 75 0 75 -155 0 c-85 0 -155 -1 -155 -2z"/>
<path d="M1160 2475 c0 -3 0 -179 0 -392 l-1 -388 76 -3 75 -3 1 183 c1 205 0
205 54 -32 l32 -145 83 -3 c75 -3 82 -1 78 15 -3 10 -27 107 -53 215 l-49 197
38 158 c22 87 41 168 44 181 4 21 2 22 -75 22 l-79 0 -35 -152 -34 -153 -3
153 -3 152 -74 0 c-41 0 -75 -2 -75 -5z"/>
<path d="M1690 2085 l0 -395 75 0 75 0 0 395 0 395 -75 0 -75 0 0 -395z"/>
<path d="M2104 2466 c-39 -17 -71 -58 -85 -108 -6 -25 -9 -135 -7 -291 3 -246
4 -253 27 -295 29 -49 51 -66 110 -82 90 -24 177 11 221 90 25 45 25 46 25
310 0 260 0 266 -24 306 -34 60 -83 84 -167 84 -38 -1 -83 -7 -100 -14z m126
-145 c6 -12 10 -107 10 -238 0 -231 -5 -259 -45 -252 -30 6 -37 59 -33 281 2
172 6 210 18 218 23 15 38 12 50 -9z"/>
<path d="M2631 2458 c-57 -38 -76 -81 -76 -168 0 -95 12 -117 120 -229 87 -90
105 -120 105 -174 0 -43 -13 -59 -41 -55 -27 4 -37 29 -38 101 l-1 47 -76 0
-77 0 5 -90 c5 -76 10 -97 32 -131 35 -52 82 -72 168 -72 127 0 176 62 177
224 1 109 -14 139 -131 257 -48 49 -90 100 -93 115 -9 33 10 59 39 55 17 -2
22 -11 24 -45 l3 -43 81 0 81 0 -7 57 c-14 123 -59 165 -181 171 -71 3 -84 1
-114 -20z"/>
</g>
</svg>
